name C:\Users\u0150099\Documents\master_thesis\3dpredictsim\Results\debug\Fal_s1_mtjc2_sc_cspx10_oy2_TrackAnkleQSubtQ_ATx70_MTc2_MTPm_k1_d01_MTJm_nl_MG_exp5_table_d01_PF_Gefen2002_xv2_ls146_ig21_wAk5e+04_wa2e+03_wpM1e+03.mot
datacolumns 128
datarows 4
range 0.00000000 0.03555931
endheader
time	pelvis_tilt	pelvis_list	pelvis_rotation	pelvis_tx	pelvis_ty	pelvis_tz	hip_flexion_l	hip_adduction_l	hip_rotation_l	hip_flexion_r	hip_adduction_r	hip_rotation_r	knee_angle_l	knee_angle_r	ankle_angle_l	ankle_angle_r	subtalar_angle_l	subtalar_angle_r	mtj_angle_l	mtj_angle_r	mtp_angle_l	mtp_angle_r	lumbar_extension	lumbar_bending	lumbar_rotation	arm_flex_l	arm_add_l	arm_rot_l	arm_flex_r	arm_add_r	arm_rot_r	elbow_flex_l	elbow_flex_r	pro_sup_l	pro_sup_r	glut_med1_l/activation	glut_med2_l/activation	glut_med3_l/activation	glut_min1_l/activation	glut_min2_l/activation	glut_min3_l/activation	semimem_l/activation	semiten_l/activation	bifemlh_l/activation	bifemsh_l/activation	sar_l/activation	add_long_l/activation	add_brev_l/activation	add_mag1_l/activation	add_mag2_l/activation	add_mag3_l/activation	tfl_l/activation	pect_l/activation	grac_l/activation	glut_max1_l/activation	glut_max2_l/activation	glut_max3_l/activation	iliacus_l/activation	psoas_l/activation	quad_fem_l/activation	gem_l/activation	peri_l/activation	rect_fem_l/activation	vas_med_l/activation	vas_int_l/activation	vas_lat_l/activation	med_gas_l/activation	lat_gas_l/activation	soleus_l/activation	tib_post_l/activation	flex_dig_l/activation	flex_hal_l/activation	tib_ant_l/activation	per_brev_l/activation	per_long_l/activation	per_tert_l/activation	ext_dig_l/activation	ext_hal_l/activation	ercspn_l/activation	intobl_l/activation	extobl_l/activation	glut_med1_r/activation	glut_med2_r/activation	glut_med3_r/activation	glut_min1_r/activation	glut_min2_r/activation	glut_min3_r/activation	semimem_r/activation	semiten_r/activation	bifemlh_r/activation	bifemsh_r/activation	sar_r/activation	add_long_r/activation	add_brev_r/activation	add_mag1_r/activation	add_mag2_r/activation	add_mag3_r/activation	tfl_r/activation	pect_r/activation	grac_r/activation	glut_max1_r/activation	glut_max2_r/activation	glut_max3_r/activation	iliacus_r/activation	psoas_r/activation	quad_fem_r/activation	gem_r/activation	peri_r/activation	rect_fem_r/activation	vas_med_r/activation	vas_int_r/activation	vas_lat_r/activation	med_gas_r/activation	lat_gas_r/activation	soleus_r/activation	tib_post_r/activation	flex_dig_r/activation	flex_hal_r/activation	tib_ant_r/activation	per_brev_r/activation	per_long_r/activation	per_tert_r/activation	ext_dig_r/activation	ext_hal_r/activation	ercspn_r/activation	intobl_r/activation	extobl_r/activation	
          0.00000000	         -2.87692399	         -0.81318052	          6.55240956	          0.00000000	          0.89957452	         -0.00693083	        -19.83876308	          1.15827008	         11.54842550	         29.74106014	          1.12807418	         -3.11429814	         -8.43620560	         -7.28964357	          6.36475262	          2.15650564	          5.45650538	         -0.09452329	         -2.09812034	          5.57099089	         17.11987394	        -14.09179809	         -2.70592606	         -0.71291487	         -1.51792123	          2.57867721	        -14.61036987	         19.33805102	        -11.05643421	        -13.50318227	          3.73495364	         45.70472213	         28.21282470	         86.51662706	         86.51662706	          0.44481363	          0.07737233	          0.05000063	          0.61322724	          0.23283562	          0.08587421	          0.05001783	          0.05000151	          0.05000114	          0.10298606	          0.11288848	          0.05000122	          0.05000148	          0.05000203	          0.05000692	          0.05000485	          0.58547171	          0.05000932	          0.05000285	          0.05001645	          0.05000793	          0.05000580	          0.37727798	          0.71282384	          0.05000066	          0.05000330	          0.05000083	          0.31283372	          0.06585345	          0.06974302	          0.05147029	          0.39141287	          0.46650283	          0.28325208	          0.51661114	          0.75689082	          0.73894368	          0.05000010	          0.07128644	          0.42910491	          0.05000045	          0.05000024	          0.10283615	          0.05000018	          0.05000033	          0.10104679	          0.05000201	          0.05000459	          0.05000390	          0.05001519	          0.05001026	          0.05000659	          0.23004566	          0.07170504	          0.07170666	          0.05000399	          0.05000579	          0.17573664	          0.16536648	          0.16549479	          0.13753207	          0.08205427	          0.05000283	          0.07609399	          0.13076572	          0.05001131	          0.05831801	          0.07360543	          0.05515956	          0.05589747	          0.22001011	          0.11164383	          0.05001306	          0.05000203	          0.05017210	          0.05017374	          0.05004883	          0.05122466	          0.05254422	          0.06954837	          0.06835326	          0.62574249	          0.26938375	          0.37887721	          0.05987753	          0.22931435	          0.43763530	          0.57839291	          0.16698080	          0.05000024	          0.11556036	          0.15006983	
          0.01185310	         -2.89383587	         -0.99664564	          6.68766537	          0.01937157	          0.89916154	         -0.00653055	        -19.91381436	          0.77223477	         11.37438007	         29.07445791	          1.74648065	         -3.11144491	        -10.05040651	         -6.68121530	          4.95358468	          1.89098980	          5.85664660	         -0.20082263	         -3.51117679	          5.56692070	         20.96057699	        -13.34067844	         -2.53631701	         -0.42544922	         -1.68974988	          1.97616349	        -14.56934028	         19.19448295	        -12.18499676	        -13.46930213	          3.40222057	         47.25288920	         28.27364033	         86.51662706	         86.51662706	          0.37143640	          0.06460905	          0.05000025	          0.51206855	          0.19442672	          0.07170848	          0.05001824	          0.05000154	          0.05000115	          0.08599727	          0.09426724	          0.05000128	          0.05000136	          0.05000171	          0.05000539	          0.05000622	          0.48889719	          0.05001198	          0.05000154	          0.05000649	          0.05000364	          0.05000326	          0.31504146	          0.70710906	          0.05000031	          0.05000164	          0.05000059	          0.27407627	          0.12047938	          0.12439986	          0.10152805	          0.32684425	          0.38954722	          0.23652597	          0.44414798	          0.85028563	          0.72020759	          0.05000004	          0.05987803	          0.41176076	          0.05000043	          0.05000017	          0.08587205	          0.05000005	          0.05435472	          0.11495984	          0.05987661	          0.05002205	          0.05001668	          0.05001512	          0.05001595	          0.05001764	          0.20598286	          0.05987755	          0.05987800	          0.05923049	          0.05000671	          0.14675305	          0.15171947	          0.13828539	          0.15990490	          0.11216425	          0.05000967	          0.06368999	          0.10919652	          0.05980638	          0.08810252	          0.08246779	          0.05000317	          0.05000279	          0.37498130	          0.13331510	          0.06856241	          0.05000274	          0.05000266	          0.05000264	          0.05000296	          0.05000358	          0.05000589	          0.05987789	          0.05707778	          0.52253084	          0.22494585	          0.36393843	          0.05000018	          0.29951427	          0.46218682	          0.66422116	          0.14313564	          0.05000036	          0.09649725	          0.12531398	
          0.02370621	         -2.90566475	         -1.19269014	          6.79369243	          0.03909552	          0.89874579	         -0.00607222	        -19.92529044	          0.37678624	         11.14415966	         28.40645480	          2.34774721	         -3.10740740	        -11.69135355	         -6.75293226	          3.17742147	          1.06615791	          6.23878024	         -0.37832325	         -4.98448839	          5.85829946	         25.06530961	        -12.45510120	         -2.35764707	         -0.12621680	         -1.85831093	          1.29792155	        -14.52563847	         18.99587893	        -13.25983274	        -13.44984342	          3.32077520	         48.75325016	         28.15908160	         86.51662706	         86.51662706	          0.31016347	          0.05987379	          0.05987732	          0.42759675	          0.16235384	          0.05987991	          0.05007547	          0.05000559	          0.05001457	          0.07181100	          0.07871751	          0.09206796	          0.14253811	          0.09371511	          0.05976857	          0.05989100	          0.48195990	          0.05002507	          0.05002809	          0.05019595	          0.05050928	          0.05986142	          0.26307149	          0.62706049	          0.05987488	          0.05987538	          0.05987680	          0.23468646	          0.15404646	          0.16027414	          0.12605064	          0.27292706	          0.32528640	          0.19750794	          0.37088020	          0.91629120	          0.60146782	          0.05000015	          0.05000057	          0.38595156	          0.05000019	          0.05000018	          0.07170639	          0.06228902	          0.07170800	          0.09599596	          0.05000015	          0.05000035	          0.05000145	          0.05000034	          0.05000042	          0.05000064	          0.17200358	          0.05000041	          0.05000055	          0.05000019	          0.05000162	          0.12254604	          0.25141474	          0.32638512	          0.17190956	          0.10855247	          0.05000105	          0.07274218	          0.09118426	          0.05000275	          0.16975691	          0.14976467	          0.05000057	          0.05000123	          0.65086759	          0.23858468	          0.15868509	          0.07170709	          0.20128495	          0.20637990	          0.15083973	          0.05000014	          0.05000025	          0.05000028	          0.05000008	          0.65123666	          0.18783849	          0.47213705	          0.05988215	          0.25010563	          0.69958006	          0.69783432	          0.49701147	          0.05000003	          0.08057881	          0.10464184	
          0.03555931	         -2.91266460	         -1.44759006	          6.87065862	          0.05900679	          0.89838976	         -0.00563676	        -19.82934883	         -0.04739839	         10.86240765	         27.69771410	          2.85658408	         -2.95156194	        -13.42101754	         -7.40351420	          1.05710467	         -0.09141531	          6.53254335	         -0.52221760	         -6.43456008	          6.22746920	         29.15022071	        -11.52562450	         -2.17391339	          0.24052408	         -2.01583694	          0.57681165	        -14.44974295	         18.75632218	        -14.23350468	        -13.46562177	          3.50007621	         50.16899596	         27.80211708	         86.51662706	         86.51662706	          0.27839937	          0.05000043	          0.05000020	          0.35706160	          0.13557180	          0.05000242	          0.05001321	          0.05000183	          0.05000120	          0.05996498	          0.06573333	          0.11368414	          0.26847326	          0.07825985	          0.05001665	          0.05001353	          0.52211948	          0.07184558	          0.05000373	          0.05000476	          0.05000274	          0.05000260	          0.21967506	          0.63614547	          0.05000043	          0.05000165	          0.05000025	          0.19597202	          0.12863503	          0.13383529	          0.10525735	          0.22790420	          0.27162622	          0.16492644	          0.30969879	          0.80792901	          0.50225097	          0.22274970	          0.21759696	          0.38199513	          0.46933471	          0.05000017	          0.05987755	          0.09680579	          0.05987885	          0.08016021	          0.37251911	          0.39339449	          0.40248289	          0.22744804	          0.31168046	          0.30706247	          0.18415101	          0.21445709	          0.13961322	          0.12338542	          0.05988328	          0.10233082	          0.20994097	          0.27254410	          0.14355141	          0.18581399	          0.05000247	          0.06074699	          0.09441007	          0.24953252	          0.18931270	          0.12505935	          0.05987790	          0.05987753	          0.54349871	          0.19922749	          0.13911947	          0.05987811	          0.16808051	          0.17233498	          0.12595688	          0.05000008	          0.05000021	          0.05000004	          0.05495251	          0.80518124	          0.40088273	          0.49349466	          0.05000384	          0.27674807	          0.67692620	          0.80192036	          0.53429355	          0.05267177	          0.08587293	          0.08737984	
